<svg width="196" height="256" viewBox="0 0 196 256" fill="none" xmlns="http://www.w3.org/2000/svg">
<path d="M109 48c0-6-2-12-7-17-4-4-10-7-17-7 7 0 13-2 17-7s7-11 7-17c0 6 3 13 7 17a24 24 0 0 0 17 7 24 24 0 0 0-17 7c-4 5-7 11-7 17m30 44a32 32 0 0 0-11-15 31 31 0 0 0-18-6 31 31 0 0 0-18 6 32 32 0 0 0-12 15l-25 74h37l17-58 23 78 11 32a54 54 0 0 0 51 38h2zM23 256h1a53 53 0 0 0 32-10c9-7 16-16 19-27l1-1v-1H36z" fill="#ff3"/>
<path d="M79 209c17-3 30-18 30-36H36c-10 0-19 4-25 11S0 200 0 209z" fill="#fff"/></svg>